<svg xmlns="http://www.w3.org/2000/svg" width="25.72" height="25.72" viewBox="0 0 25.72 25.72">
  <path id="forum-logo-dark" d="M14.2,12.86a1.335,1.335,0,1,1-1.335-1.335A1.335,1.335,0,0,1,14.2,12.86Zm4.731-1.335a1.335,1.335,0,1,0,1.335,1.335A1.335,1.335,0,0,0,18.926,11.525Zm-2.72-3.9a1.335,1.335,0,1,0,1.887,0A1.335,1.335,0,0,0,16.206,7.627Zm-4.681-.832A1.335,1.335,0,1,0,12.86,5.459,1.335,1.335,0,0,0,11.525,6.794Zm-3.9,2.72a1.335,1.335,0,1,0,0-1.887A1.335,1.335,0,0,0,7.627,9.514ZM6.794,14.2A1.335,1.335,0,1,0,5.459,12.86,1.335,1.335,0,0,0,6.794,14.2Zm2.72,3.9a1.335,1.335,0,1,0-1.887,0A1.335,1.335,0,0,0,9.514,18.094Zm4.681.832a1.335,1.335,0,1,0-1.335,1.335A1.335,1.335,0,0,0,14.2,18.926Zm3.9-2.72a1.335,1.335,0,1,0,0,1.887A1.335,1.335,0,0,0,18.094,16.206Zm6.292-4.681A1.335,1.335,0,1,0,25.72,12.86,1.335,1.335,0,0,0,24.386,11.525ZM22.174,5.941A1.334,1.334,0,1,0,24,6.43,1.335,1.335,0,0,0,22.174,5.941Zm-4.706-3.73a1.334,1.334,0,1,0,1.823-.489A1.334,1.334,0,0,0,17.468,2.211Zm-5.942-.876A1.335,1.335,0,1,0,12.86,0,1.335,1.335,0,0,0,11.525,1.335ZM5.941,3.546A1.334,1.334,0,1,0,6.43,1.724,1.335,1.335,0,0,0,5.941,3.546ZM2.211,8.253A1.334,1.334,0,1,0,1.722,6.43,1.334,1.334,0,0,0,2.211,8.253ZM1.335,14.2A1.335,1.335,0,1,0,0,12.86,1.335,1.335,0,0,0,1.335,14.2Zm2.211,5.584a1.334,1.334,0,1,0-1.823-.489A1.335,1.335,0,0,0,3.546,19.779Zm4.706,3.73A1.334,1.334,0,1,0,6.43,24,1.334,1.334,0,0,0,8.253,23.509Zm5.942.877A1.335,1.335,0,1,0,12.86,25.72,1.335,1.335,0,0,0,14.2,24.386Zm5.584-2.211A1.334,1.334,0,1,0,19.29,24,1.335,1.335,0,0,0,19.779,22.174Zm3.73-4.706A1.334,1.334,0,1,0,24,19.29,1.334,1.334,0,0,0,23.509,17.468Z" fill="#132f48"/>
</svg>
